<?xml version="1.0" standalone="no"?>
<!DOCTYPE svg PUBLIC "-//W3C//DTD SVG 20010904//EN"
 "http://www.w3.org/TR/2001/REC-SVG-20010904/DTD/svg10.dtd">
<svg version="1.0" xmlns="http://www.w3.org/2000/svg"
 width="700.000000pt" height="700.000000pt" viewBox="0 0 700.000000 700.000000"
 preserveAspectRatio="xMidYMid meet">
<metadata>
Created by potrace 1.11, written by Peter Selinger 2001-2013
</metadata>
<g transform="translate(0.000000,700.000000) scale(0.100000,-0.100000)"
fill="#000000" stroke="none">
<path d="M3196 6983 c-1 -1 -33 -5 -72 -8 -38 -4 -80 -8 -94 -11 -14 -2 -45
-7 -70 -10 -25 -3 -54 -8 -65 -10 -11 -2 -33 -7 -50 -10 -350 -63 -800 -229
-1073 -395 -35 -22 -66 -39 -68 -39 -21 0 -346 -230 -438 -310 -103 -88 -211
-188 -272 -251 -63 -65 -91 -97 -191 -212 -231 -266 -476 -699 -603 -1062 -33
-96 -97 -310 -104 -351 -3 -13 -7 -32 -10 -42 -3 -9 -7 -28 -10 -42 -2 -14 -9
-54 -16 -90 -16 -92 -18 -107 -26 -159 -3 -25 -8 -57 -10 -71 -26 -161 -25
-664 1 -821 2 -13 6 -46 9 -74 9 -78 23 -156 51 -285 23 -107 88 -333 114
-395 5 -11 26 -65 46 -120 51 -135 170 -377 247 -503 35 -57 68 -111 73 -120
48 -83 247 -340 348 -449 98 -106 262 -262 358 -340 89 -74 304 -233 313 -233
3 0 32 -18 65 -40 33 -22 63 -40 67 -40 4 0 15 -6 23 -14 30 -25 248 -135 387
-194 176 -75 453 -166 607 -198 101 -21 216 -41 277 -49 25 -3 56 -7 69 -10
135 -26 700 -26 839 0 16 3 104 15 147 20 166 21 467 104 697 191 506 193
1020 550 1360 948 34 39 64 73 68 76 14 11 141 181 202 270 138 201 236 383
353 655 51 118 143 415 171 550 62 298 79 464 79 760 0 189 -6 319 -20 425 -7
62 -15 117 -20 140 -3 14 -8 41 -11 60 -8 54 -54 262 -64 290 -4 14 -18 59
-30 100 -75 253 -191 519 -329 755 -56 96 -142 229 -178 275 -6 8 -35 47 -64
85 -57 75 -61 80 -166 200 -393 449 -923 798 -1510 995 -113 38 -359 103 -433
115 -39 6 -94 16 -125 21 -20 4 -71 11 -135 19 -19 2 -78 7 -131 11 l-96 6 -2
-83 c-1 -46 -3 -99 -5 -117 -1 -17 1 -36 4 -42 3 -5 42 -12 85 -15 68 -5 189
-21 310 -41 186 -29 475 -115 675 -198 143 -60 444 -217 495 -258 6 -5 59 -42
119 -84 219 -151 468 -380 626 -574 25 -30 47 -57 50 -60 9 -9 125 -165 130
-175 3 -5 31 -49 63 -97 31 -47 57 -91 57 -96 0 -6 3 -12 8 -14 22 -10 171
-315 235 -484 29 -75 86 -245 93 -279 1 -5 14 -55 28 -110 31 -126 58 -276 70
-395 3 -25 8 -74 12 -110 8 -80 11 -413 4 -457 l-5 -33 -35 29 c-19 16 -102
81 -185 145 -82 64 -160 124 -172 134 -12 9 -52 41 -90 69 -37 29 -178 139
-313 243 -135 105 -256 199 -270 210 -14 11 -135 105 -270 210 -347 270 -803
624 -815 632 -5 4 -26 20 -45 36 -19 15 -136 106 -260 202 -124 96 -229 178
-235 182 -5 5 -50 39 -100 78 -49 38 -136 105 -192 150 -91 71 -103 77 -104
58 -2 -36 -6 -192 -13 -443 -4 -126 -9 -295 -11 -375 -2 -80 -7 -255 -10 -390
-3 -135 -8 -306 -10 -380 -2 -74 -7 -245 -10 -380 -3 -135 -8 -301 -10 -370
-6 -185 -18 -646 -18 -715 -1 -144 19 -263 69 -415 108 -324 346 -594 659
-744 82 -40 185 -78 246 -92 143 -32 234 -41 394 -39 94 1 181 5 195 9 14 3
52 11 85 16 86 15 291 84 393 132 337 159 639 426 851 753 67 102 68 103 35
25 -258 -603 -680 -1107 -1229 -1465 -319 -208 -725 -378 -1075 -450 -116 -24
-239 -45 -295 -50 -38 -4 -81 -9 -95 -12 -46 -9 -494 -11 -575 -2 -129 14
-169 19 -190 23 -11 2 -42 7 -70 10 -81 11 -301 63 -425 101 -197 61 -466 176
-635 273 -73 42 -238 145 -245 152 -3 3 -43 33 -90 67 -482 346 -893 888
-1109 1465 -58 154 -128 397 -147 508 -2 14 -7 36 -9 50 -26 128 -42 278 -51
470 l-7 136 84 49 c46 27 93 54 104 60 11 7 65 38 120 70 345 200 678 339 915
380 19 4 58 11 85 15 50 9 482 6 520 -3 11 -3 42 -8 69 -11 154 -21 313 -71
456 -143 303 -153 495 -389 657 -808 19 -49 42 -98 51 -107 20 -23 54 -23 82
0 21 17 22 24 20 162 -1 80 -3 190 -5 245 -2 55 -6 215 -10 355 -3 140 -8 316
-10 390 -2 74 -7 257 -11 405 -3 149 -7 317 -9 375 -2 58 -6 240 -10 405 -4
165 -8 302 -10 303 -5 6 -80 -42 -240 -153 -82 -57 -202 -139 -265 -183 -1076
-738 -1601 -1081 -2200 -1439 -151 -90 -282 -168 -290 -173 -8 -6 -32 -19 -54
-31 l-39 -21 7 94 c7 99 8 107 32 262 12 81 36 203 48 251 2 6 6 24 10 40 93
368 281 769 510 1090 177 247 428 506 671 690 90 69 308 215 320 215 4 0 19 9
34 19 27 19 304 161 315 161 3 0 29 11 58 24 49 22 303 111 345 121 10 2 56
14 103 26 106 26 109 27 202 44 109 20 286 42 370 47 l36 2 -3 100 c-2 56 -4
111 -4 124 -1 21 -5 22 -57 20 -30 -2 -57 -4 -58 -5z"/>
</g>
</svg>
